<?xml version="1.0" encoding="utf-8"?>
<!-- Generator: Adobe Illustrator 22.1.0, SVG Export Plug-In . SVG Version: 6.00 Build 0)  -->
<svg version="1.1" id="Слой_1" xmlns="http://www.w3.org/2000/svg" xmlns:xlink="http://www.w3.org/1999/xlink" x="0px" y="0px"
	 viewBox="0 0 30 30" style="enable-background:new 0 0 30 30;" xml:space="preserve">
<style type="text/css">
	.st0{fill:#FFFFFF;}
</style>
<title>instagram (2)</title>
<desc>Created with Sketch.</desc>
<g id="Page-1">
	<g id="Group-8" transform="translate(-1057.000000, -382.000000)">
		<g id="Group-2" transform="translate(1057.000000, 382.000000)">
			<g id="instagram-_x28_2_x29_">
				<path id="Shape" class="st0" d="M19.4,8h-8.9c-1.4,0-2.6,1.2-2.6,2.6v8.9c0,1.4,1.2,2.6,2.6,2.6h8.9c1.4,0,2.6-1.2,2.6-2.6v-8.9
					C22,9.1,20.8,8,19.4,8z M15,19.6c-2.6,0-4.6-2.1-4.6-4.6c0-2.6,2.1-4.6,4.6-4.6c2.6,0,4.6,2.1,4.6,4.6S17.5,19.6,15,19.6z
					 M19.7,11.3c-0.6,0-1.1-0.5-1.1-1.1s0.5-1.1,1.1-1.1c0.6,0,1.1,0.5,1.1,1.1S20.3,11.3,19.7,11.3z"/>
				<path id="Shape_1_" class="st0" d="M15,12.3c-1.5,0-2.7,1.2-2.7,2.7c0,1.5,1.2,2.7,2.7,2.7c1.5,0,2.7-1.2,2.7-2.7
					C17.6,13.5,16.4,12.3,15,12.3z"/>
				<path id="Shape_2_" class="st0" d="M15,0C6.7,0,0,6.7,0,15s6.7,15,15,15s15-6.7,15-15S23.2,0,15,0z M24,19.5
					c0,2.5-2,4.5-4.5,4.5h-8.9C8,24,6,22,6,19.5v-8.9C6,8,8,6,10.5,6h8.9c2.5,0,4.5,2,4.5,4.5V19.5z"/>
			</g>
		</g>
	</g>
</g>
</svg>
