<?xml version="1.0" encoding="utf-8"?>
<!-- Generator: Adobe Illustrator 22.1.0, SVG Export Plug-In . SVG Version: 6.00 Build 0)  -->
<svg version="1.1" id="Слой_1" xmlns="http://www.w3.org/2000/svg" xmlns:xlink="http://www.w3.org/1999/xlink" x="0px" y="0px"
	 viewBox="0 0 30 30" style="enable-background:new 0 0 30 30;" xml:space="preserve">
<style type="text/css">
	.st0{fill:#FFFFFF;}
</style>
<title>Group 4</title>
<desc>Created with Sketch.</desc>
<g id="Page-1">
	<g id="Group-8" transform="translate(-1104.000000, -382.000000)">
		<g id="Group-4" transform="translate(1104.000000, 382.000000)">
			<g id="vk-social-logotype">
				<path id="Shape" class="st0" d="M15,0C6.7,0,0,6.7,0,15s6.7,15,15,15s15-6.7,15-15S23.2,0,15,0z M22.6,16.6
					c0.7,0.7,1.4,1.3,2.1,2.1c0.3,0.3,0.5,0.7,0.7,1.1c0.3,0.6,0,1.2-0.5,1.2l-3.1,0c-0.8,0.1-1.4-0.3-2-0.8
					c-0.4-0.4-0.8-0.9-1.2-1.3c-0.2-0.2-0.3-0.4-0.6-0.5c-0.4-0.3-0.8-0.2-1,0.2c-0.2,0.4-0.3,0.9-0.3,1.4c0,0.7-0.3,0.9-1,0.9
					c-1.5,0.1-3-0.2-4.4-0.9c-1.2-0.7-2.1-1.7-3-2.8c-1.6-2.1-2.8-4.5-3.9-6.9C4.3,9.7,4.5,9.4,5.1,9.4c1,0,2,0,3,0
					c0.4,0,0.7,0.2,0.8,0.6c0.5,1.3,1.2,2.6,2,3.8c0.2,0.3,0.4,0.6,0.8,0.8c0.4,0.2,0.6,0.2,0.8-0.2c0.1-0.3,0.2-0.5,0.2-0.8
					c0.1-0.9,0.1-1.8,0-2.8c-0.1-0.6-0.4-0.9-1-1.1c-0.3-0.1-0.2-0.2-0.1-0.3C11.8,9.2,12,9,12.5,9L16,9c0.5,0.1,0.7,0.4,0.7,0.9
					l0,3.8c0,0.2,0.1,0.8,0.5,1c0.3,0.1,0.5-0.1,0.7-0.3c0.8-0.9,1.4-1.9,2-3c0.2-0.5,0.4-1,0.6-1.5c0.1-0.4,0.4-0.5,0.8-0.5l3.3,0
					c0.1,0,0.2,0,0.3,0c0.6,0.1,0.7,0.3,0.5,0.9c-0.3,0.9-0.8,1.6-1.3,2.3c-0.6,0.8-1.2,1.5-1.7,2.3C21.9,15.6,21.9,16,22.6,16.6z"
					/>
			</g>
		</g>
	</g>
</g>
</svg>
